<mxfile host="app.diagrams.net" modified="2021-03-26T03:01:29.946Z" agent="5.0 (Macintosh; Intel Mac OS X 10_13_6) AppleWebKit/537.36 (KHTML, like Gecko) Chrome/88.0.4324.192 Safari/537.36" etag="HlNmjJRfS8_vxvS6qF-8" version="14.4.4" type="github">
  <diagram id="RuLAo8RMxsHr2N-g03K9" name="Pandora权限体系">
    <mxGraphModel dx="2620" dy="1603" grid="1" gridSize="10" guides="1" tooltips="1" connect="1" arrows="1" fold="1" page="1" pageScale="1" pageWidth="827" pageHeight="1169" math="0" shadow="0">
      <root>
        <mxCell id="0" />
        <mxCell id="1" parent="0" />
        <mxCell id="1n5_cvBbj378lxJQUIeA-2" value="" style="rounded=0;whiteSpace=wrap;html=1;strokeColor=none;" vertex="1" parent="1">
          <mxGeometry x="192" y="20" width="1215" height="720" as="geometry" />
        </mxCell>
        <mxCell id="1n5_cvBbj378lxJQUIeA-107" value="" style="rounded=0;whiteSpace=wrap;html=1;fontSize=12;fontColor=#000000;dashed=1;fillColor=none;strokeColor=#808080;" vertex="1" parent="1">
          <mxGeometry x="1090" y="296" width="240" height="210" as="geometry" />
        </mxCell>
        <mxCell id="1n5_cvBbj378lxJQUIeA-105" value="" style="rounded=0;whiteSpace=wrap;html=1;dashed=1;strokeColor=#6C8EBF;fillColor=none;fontSize=12;fontColor=#000000;align=left;" vertex="1" parent="1">
          <mxGeometry x="840" y="296" width="240" height="210" as="geometry" />
        </mxCell>
        <mxCell id="1n5_cvBbj378lxJQUIeA-89" value="" style="rounded=0;whiteSpace=wrap;html=1;fontSize=12;fontColor=#000000;dashed=1;fillColor=none;strokeColor=#808080;" vertex="1" parent="1">
          <mxGeometry x="850" y="368" width="220" height="70" as="geometry" />
        </mxCell>
        <mxCell id="1n5_cvBbj378lxJQUIeA-91" value="" style="rounded=0;whiteSpace=wrap;html=1;fontSize=12;fontColor=#000000;dashed=1;fillColor=none;strokeColor=#808080;" vertex="1" parent="1">
          <mxGeometry x="1100" y="368" width="220" height="70" as="geometry" />
        </mxCell>
        <mxCell id="1n5_cvBbj378lxJQUIeA-1" value="功能权限" style="rounded=1;whiteSpace=wrap;html=1;" vertex="1" parent="1">
          <mxGeometry x="380" y="554" width="120" height="60" as="geometry" />
        </mxCell>
        <mxCell id="1n5_cvBbj378lxJQUIeA-3" value="数据权限" style="rounded=1;whiteSpace=wrap;html=1;" vertex="1" parent="1">
          <mxGeometry x="610" y="554" width="120" height="60" as="geometry" />
        </mxCell>
        <mxCell id="1n5_cvBbj378lxJQUIeA-4" value="APP：Search" style="rounded=1;whiteSpace=wrap;html=1;" vertex="1" parent="1">
          <mxGeometry x="865" y="446" width="185" height="47" as="geometry" />
        </mxCell>
        <mxCell id="1n5_cvBbj378lxJQUIeA-6" value="&lt;span&gt;APP：Pandora ML&lt;br&gt;&lt;/span&gt;" style="rounded=1;whiteSpace=wrap;html=1;" vertex="1" parent="1">
          <mxGeometry x="1120" y="446" width="185" height="47" as="geometry" />
        </mxCell>
        <mxCell id="1n5_cvBbj378lxJQUIeA-7" value="用户A" style="ellipse;whiteSpace=wrap;html=1;fillColor=#dae8fc;strokeColor=#6c8ebf;" vertex="1" parent="1">
          <mxGeometry x="290" y="200" width="120" height="65" as="geometry" />
        </mxCell>
        <mxCell id="1n5_cvBbj378lxJQUIeA-8" value="用户B" style="ellipse;whiteSpace=wrap;html=1;fillColor=#d5e8d4;strokeColor=#82b366;" vertex="1" parent="1">
          <mxGeometry x="450" y="200" width="120" height="65" as="geometry" />
        </mxCell>
        <mxCell id="1n5_cvBbj378lxJQUIeA-12" style="edgeStyle=orthogonalEdgeStyle;rounded=0;orthogonalLoop=1;jettySize=auto;html=1;exitX=0.5;exitY=0;exitDx=0;exitDy=0;entryX=0.5;entryY=1;entryDx=0;entryDy=0;dashed=1;strokeColor=#6C8EBF;" edge="1" parent="1" source="1n5_cvBbj378lxJQUIeA-9" target="1n5_cvBbj378lxJQUIeA-7">
          <mxGeometry relative="1" as="geometry" />
        </mxCell>
        <mxCell id="1n5_cvBbj378lxJQUIeA-9" value="角色1" style="shape=parallelogram;perimeter=parallelogramPerimeter;whiteSpace=wrap;html=1;fixedSize=1;fillColor=#f5f5f5;strokeColor=#666666;fontColor=#333333;" vertex="1" parent="1">
          <mxGeometry x="290" y="315" width="120" height="60" as="geometry" />
        </mxCell>
        <mxCell id="1n5_cvBbj378lxJQUIeA-14" style="edgeStyle=orthogonalEdgeStyle;rounded=0;orthogonalLoop=1;jettySize=auto;html=1;exitX=0.5;exitY=0;exitDx=0;exitDy=0;strokeColor=#009900;" edge="1" parent="1" source="1n5_cvBbj378lxJQUIeA-10">
          <mxGeometry relative="1" as="geometry">
            <mxPoint x="510" y="265" as="targetPoint" />
          </mxGeometry>
        </mxCell>
        <mxCell id="1n5_cvBbj378lxJQUIeA-10" value="角色2" style="shape=parallelogram;perimeter=parallelogramPerimeter;whiteSpace=wrap;html=1;fixedSize=1;fillColor=#f5f5f5;strokeColor=#666666;fontColor=#333333;" vertex="1" parent="1">
          <mxGeometry x="450" y="315" width="120" height="60" as="geometry" />
        </mxCell>
        <mxCell id="1n5_cvBbj378lxJQUIeA-74" style="edgeStyle=orthogonalEdgeStyle;rounded=0;orthogonalLoop=1;jettySize=auto;html=1;exitX=0.5;exitY=0;exitDx=0;exitDy=0;entryX=0.5;entryY=1;entryDx=0;entryDy=0;startArrow=none;startFill=0;endArrow=classic;endFill=1;strokeColor=#FF8000;fontSize=12;fontColor=#000000;dashed=1;" edge="1" parent="1" source="1n5_cvBbj378lxJQUIeA-11" target="1n5_cvBbj378lxJQUIeA-72">
          <mxGeometry relative="1" as="geometry" />
        </mxCell>
        <mxCell id="1n5_cvBbj378lxJQUIeA-11" value="角色3" style="shape=parallelogram;perimeter=parallelogramPerimeter;whiteSpace=wrap;html=1;fixedSize=1;fillColor=#f5f5f5;strokeColor=#666666;fontColor=#333333;" vertex="1" parent="1">
          <mxGeometry x="610" y="315" width="120" height="60" as="geometry" />
        </mxCell>
        <mxCell id="1n5_cvBbj378lxJQUIeA-16" value="" style="endArrow=classic;html=1;strokeColor=#009900;" edge="1" parent="1">
          <mxGeometry width="50" height="50" relative="1" as="geometry">
            <mxPoint x="350" y="315" as="sourcePoint" />
            <mxPoint x="510" y="265" as="targetPoint" />
          </mxGeometry>
        </mxCell>
        <mxCell id="1n5_cvBbj378lxJQUIeA-17" value="" style="endArrow=classic;html=1;exitX=0.5;exitY=0;exitDx=0;exitDy=0;dashed=1;strokeColor=#6C8EBF;" edge="1" parent="1" source="1n5_cvBbj378lxJQUIeA-11">
          <mxGeometry width="50" height="50" relative="1" as="geometry">
            <mxPoint x="450" y="355" as="sourcePoint" />
            <mxPoint x="350" y="265" as="targetPoint" />
          </mxGeometry>
        </mxCell>
        <mxCell id="1n5_cvBbj378lxJQUIeA-27" value="" style="group;fillColor=#f5f5f5;strokeColor=#666666;fontColor=#333333;" vertex="1" connectable="0" parent="1">
          <mxGeometry x="270" y="439" width="160" height="80" as="geometry" />
        </mxCell>
        <mxCell id="1n5_cvBbj378lxJQUIeA-19" value="仓库管理" style="rounded=0;whiteSpace=wrap;html=1;" vertex="1" parent="1n5_cvBbj378lxJQUIeA-27">
          <mxGeometry y="40" width="160" height="40" as="geometry" />
        </mxCell>
        <mxCell id="1n5_cvBbj378lxJQUIeA-22" value="查看/访问" style="rounded=0;whiteSpace=wrap;html=1;" vertex="1" parent="1n5_cvBbj378lxJQUIeA-27">
          <mxGeometry width="40" height="40" as="geometry" />
        </mxCell>
        <mxCell id="1n5_cvBbj378lxJQUIeA-24" value="创建" style="rounded=0;whiteSpace=wrap;html=1;" vertex="1" parent="1n5_cvBbj378lxJQUIeA-27">
          <mxGeometry x="40" width="40" height="40" as="geometry" />
        </mxCell>
        <mxCell id="1n5_cvBbj378lxJQUIeA-25" value="编辑" style="rounded=0;whiteSpace=wrap;html=1;" vertex="1" parent="1n5_cvBbj378lxJQUIeA-27">
          <mxGeometry x="80" width="40" height="40" as="geometry" />
        </mxCell>
        <mxCell id="1n5_cvBbj378lxJQUIeA-26" value="删除" style="rounded=0;whiteSpace=wrap;html=1;" vertex="1" parent="1n5_cvBbj378lxJQUIeA-27">
          <mxGeometry x="120" width="40" height="40" as="geometry" />
        </mxCell>
        <mxCell id="1n5_cvBbj378lxJQUIeA-28" value="" style="group;fillColor=#f5f5f5;strokeColor=#666666;fontColor=#333333;" vertex="1" connectable="0" parent="1">
          <mxGeometry x="451" y="439" width="160" height="80" as="geometry" />
        </mxCell>
        <mxCell id="1n5_cvBbj378lxJQUIeA-29" value="告警规则管理" style="rounded=0;whiteSpace=wrap;html=1;" vertex="1" parent="1n5_cvBbj378lxJQUIeA-28">
          <mxGeometry y="40" width="160" height="40" as="geometry" />
        </mxCell>
        <mxCell id="1n5_cvBbj378lxJQUIeA-30" value="查看/访问" style="rounded=0;whiteSpace=wrap;html=1;" vertex="1" parent="1n5_cvBbj378lxJQUIeA-28">
          <mxGeometry width="40" height="40" as="geometry" />
        </mxCell>
        <mxCell id="1n5_cvBbj378lxJQUIeA-31" value="创建" style="rounded=0;whiteSpace=wrap;html=1;" vertex="1" parent="1n5_cvBbj378lxJQUIeA-28">
          <mxGeometry x="40" width="40" height="40" as="geometry" />
        </mxCell>
        <mxCell id="1n5_cvBbj378lxJQUIeA-32" value="编辑" style="rounded=0;whiteSpace=wrap;html=1;" vertex="1" parent="1n5_cvBbj378lxJQUIeA-28">
          <mxGeometry x="80" width="40" height="40" as="geometry" />
        </mxCell>
        <mxCell id="1n5_cvBbj378lxJQUIeA-33" value="删除" style="rounded=0;whiteSpace=wrap;html=1;" vertex="1" parent="1n5_cvBbj378lxJQUIeA-28">
          <mxGeometry x="120" width="40" height="40" as="geometry" />
        </mxCell>
        <mxCell id="1n5_cvBbj378lxJQUIeA-34" value="......" style="rounded=0;whiteSpace=wrap;html=1;strokeColor=none;fontSize=16;" vertex="1" parent="1">
          <mxGeometry x="620" y="479" width="40" height="40" as="geometry" />
        </mxCell>
        <mxCell id="1n5_cvBbj378lxJQUIeA-37" value="" style="endArrow=none;html=1;strokeColor=#000000;fontSize=16;fontColor=#000000;exitX=0.5;exitY=0;exitDx=0;exitDy=0;entryX=0.5;entryY=1;entryDx=0;entryDy=0;endFill=0;" edge="1" parent="1" source="1n5_cvBbj378lxJQUIeA-1" target="1n5_cvBbj378lxJQUIeA-29">
          <mxGeometry width="50" height="50" relative="1" as="geometry">
            <mxPoint x="350" y="550" as="sourcePoint" />
            <mxPoint x="400" y="500" as="targetPoint" />
          </mxGeometry>
        </mxCell>
        <mxCell id="1n5_cvBbj378lxJQUIeA-38" value="" style="endArrow=classic;html=1;fontSize=16;fontColor=#000000;entryX=0.5;entryY=1;entryDx=0;entryDy=0;exitX=0.5;exitY=0;exitDx=0;exitDy=0;strokeColor=#6C8EBF;dashed=1;" edge="1" parent="1" source="1n5_cvBbj378lxJQUIeA-22" target="1n5_cvBbj378lxJQUIeA-9">
          <mxGeometry width="50" height="50" relative="1" as="geometry">
            <mxPoint x="290" y="440" as="sourcePoint" />
            <mxPoint x="340" y="390" as="targetPoint" />
          </mxGeometry>
        </mxCell>
        <mxCell id="1n5_cvBbj378lxJQUIeA-40" value="" style="endArrow=classic;html=1;fontSize=16;fontColor=#000000;entryX=0.5;entryY=1;entryDx=0;entryDy=0;exitX=0.5;exitY=0;exitDx=0;exitDy=0;strokeColor=#6C8EBF;dashed=1;" edge="1" parent="1" source="1n5_cvBbj378lxJQUIeA-25" target="1n5_cvBbj378lxJQUIeA-9">
          <mxGeometry width="50" height="50" relative="1" as="geometry">
            <mxPoint x="330" y="439" as="sourcePoint" />
            <mxPoint x="380" y="389" as="targetPoint" />
          </mxGeometry>
        </mxCell>
        <mxCell id="1n5_cvBbj378lxJQUIeA-43" value="" style="endArrow=classic;html=1;fontSize=16;fontColor=#000000;exitX=0.5;exitY=0;exitDx=0;exitDy=0;entryX=0.5;entryY=1;entryDx=0;entryDy=0;strokeColor=#6C8EBF;dashed=1;" edge="1" parent="1" source="1n5_cvBbj378lxJQUIeA-30" target="1n5_cvBbj378lxJQUIeA-9">
          <mxGeometry width="50" height="50" relative="1" as="geometry">
            <mxPoint x="470" y="439" as="sourcePoint" />
            <mxPoint x="520" y="389" as="targetPoint" />
          </mxGeometry>
        </mxCell>
        <mxCell id="1n5_cvBbj378lxJQUIeA-44" value="基于角色的权限授权" style="text;html=1;strokeColor=none;fillColor=none;align=center;verticalAlign=middle;whiteSpace=wrap;rounded=0;fontSize=16;fontColor=#000000;" vertex="1" parent="1">
          <mxGeometry x="380" y="90" width="190" height="20" as="geometry" />
        </mxCell>
        <mxCell id="1n5_cvBbj378lxJQUIeA-45" value="" style="endArrow=classic;html=1;fontSize=16;fontColor=#000000;exitX=0.5;exitY=0;exitDx=0;exitDy=0;entryX=0.5;entryY=1;entryDx=0;entryDy=0;strokeColor=#009900;" edge="1" parent="1" source="1n5_cvBbj378lxJQUIeA-31" target="1n5_cvBbj378lxJQUIeA-10">
          <mxGeometry width="50" height="50" relative="1" as="geometry">
            <mxPoint x="490" y="440" as="sourcePoint" />
            <mxPoint x="540" y="390" as="targetPoint" />
          </mxGeometry>
        </mxCell>
        <mxCell id="1n5_cvBbj378lxJQUIeA-46" value="" style="endArrow=classic;html=1;fontSize=16;fontColor=#000000;entryX=0.5;entryY=1;entryDx=0;entryDy=0;exitX=0.5;exitY=0;exitDx=0;exitDy=0;strokeColor=#009900;" edge="1" parent="1" source="1n5_cvBbj378lxJQUIeA-24" target="1n5_cvBbj378lxJQUIeA-10">
          <mxGeometry width="50" height="50" relative="1" as="geometry">
            <mxPoint x="470" y="440" as="sourcePoint" />
            <mxPoint x="520" y="390" as="targetPoint" />
          </mxGeometry>
        </mxCell>
        <mxCell id="1n5_cvBbj378lxJQUIeA-47" value="" style="endArrow=classic;html=1;fontSize=16;fontColor=#000000;exitX=0.5;exitY=0;exitDx=0;exitDy=0;entryX=0.5;entryY=1;entryDx=0;entryDy=0;strokeColor=#009900;" edge="1" parent="1" source="1n5_cvBbj378lxJQUIeA-22" target="1n5_cvBbj378lxJQUIeA-10">
          <mxGeometry width="50" height="50" relative="1" as="geometry">
            <mxPoint x="330" y="450" as="sourcePoint" />
            <mxPoint x="510" y="370" as="targetPoint" />
          </mxGeometry>
        </mxCell>
        <mxCell id="1n5_cvBbj378lxJQUIeA-48" value="" style="endArrow=classic;html=1;fontSize=16;fontColor=#000000;exitX=0.5;exitY=0;exitDx=0;exitDy=0;strokeColor=#009900;" edge="1" parent="1" source="1n5_cvBbj378lxJQUIeA-30">
          <mxGeometry width="50" height="50" relative="1" as="geometry">
            <mxPoint x="470" y="450" as="sourcePoint" />
            <mxPoint x="510" y="380" as="targetPoint" />
          </mxGeometry>
        </mxCell>
        <mxCell id="1n5_cvBbj378lxJQUIeA-49" value="" style="endArrow=classic;html=1;strokeColor=#009900;fontSize=16;fontColor=#000000;entryX=0.5;entryY=1;entryDx=0;entryDy=0;exitX=0.5;exitY=0;exitDx=0;exitDy=0;" edge="1" parent="1" source="1n5_cvBbj378lxJQUIeA-32" target="1n5_cvBbj378lxJQUIeA-10">
          <mxGeometry width="50" height="50" relative="1" as="geometry">
            <mxPoint x="560" y="430" as="sourcePoint" />
            <mxPoint x="610" y="380" as="targetPoint" />
          </mxGeometry>
        </mxCell>
        <mxCell id="1n5_cvBbj378lxJQUIeA-50" value="" style="endArrow=classic;html=1;strokeColor=#009900;fontSize=16;fontColor=#000000;entryX=0.5;entryY=1;entryDx=0;entryDy=0;exitX=0.5;exitY=0;exitDx=0;exitDy=0;" edge="1" parent="1" source="1n5_cvBbj378lxJQUIeA-25" target="1n5_cvBbj378lxJQUIeA-10">
          <mxGeometry width="50" height="50" relative="1" as="geometry">
            <mxPoint x="550" y="430" as="sourcePoint" />
            <mxPoint x="600" y="380" as="targetPoint" />
          </mxGeometry>
        </mxCell>
        <mxCell id="1n5_cvBbj378lxJQUIeA-51" value="" style="endArrow=classic;html=1;dashed=1;fontSize=16;fontColor=#000000;entryX=0.5;entryY=1;entryDx=0;entryDy=0;exitX=0.5;exitY=0;exitDx=0;exitDy=0;strokeColor=#FF8000;" edge="1" parent="1" source="1n5_cvBbj378lxJQUIeA-33" target="1n5_cvBbj378lxJQUIeA-11">
          <mxGeometry width="50" height="50" relative="1" as="geometry">
            <mxPoint x="640" y="450" as="sourcePoint" />
            <mxPoint x="690" y="400" as="targetPoint" />
          </mxGeometry>
        </mxCell>
        <mxCell id="1n5_cvBbj378lxJQUIeA-52" value="" style="endArrow=classic;html=1;dashed=1;fontSize=16;fontColor=#000000;exitX=0.5;exitY=0;exitDx=0;exitDy=0;entryX=0.5;entryY=1;entryDx=0;entryDy=0;strokeColor=#FF8000;" edge="1" parent="1" source="1n5_cvBbj378lxJQUIeA-26" target="1n5_cvBbj378lxJQUIeA-11">
          <mxGeometry width="50" height="50" relative="1" as="geometry">
            <mxPoint x="660" y="450" as="sourcePoint" />
            <mxPoint x="670" y="380" as="targetPoint" />
          </mxGeometry>
        </mxCell>
        <mxCell id="1n5_cvBbj378lxJQUIeA-53" value="" style="endArrow=classic;html=1;fontSize=16;fontColor=#000000;exitX=0.5;exitY=0;exitDx=0;exitDy=0;entryX=0.489;entryY=0.991;entryDx=0;entryDy=0;entryPerimeter=0;" edge="1" parent="1" source="1n5_cvBbj378lxJQUIeA-3" target="1n5_cvBbj378lxJQUIeA-11">
          <mxGeometry width="50" height="50" relative="1" as="geometry">
            <mxPoint x="740" y="500" as="sourcePoint" />
            <mxPoint x="670" y="370" as="targetPoint" />
            <Array as="points">
              <mxPoint x="690" y="460" />
            </Array>
          </mxGeometry>
        </mxCell>
        <mxCell id="1n5_cvBbj378lxJQUIeA-54" value="" style="endArrow=classic;html=1;strokeColor=#000000;fontSize=16;fontColor=#000000;entryX=0.5;entryY=1;entryDx=0;entryDy=0;exitX=0.5;exitY=0;exitDx=0;exitDy=0;" edge="1" parent="1" source="1n5_cvBbj378lxJQUIeA-3" target="1n5_cvBbj378lxJQUIeA-10">
          <mxGeometry width="50" height="50" relative="1" as="geometry">
            <mxPoint x="740" y="530" as="sourcePoint" />
            <mxPoint x="790" y="480" as="targetPoint" />
            <Array as="points">
              <mxPoint x="650" y="440" />
            </Array>
          </mxGeometry>
        </mxCell>
        <mxCell id="1n5_cvBbj378lxJQUIeA-55" value="" style="endArrow=classic;html=1;strokeColor=#000000;fontSize=16;fontColor=#000000;entryX=0.5;entryY=1;entryDx=0;entryDy=0;exitX=0.5;exitY=0;exitDx=0;exitDy=0;" edge="1" parent="1" source="1n5_cvBbj378lxJQUIeA-3" target="1n5_cvBbj378lxJQUIeA-9">
          <mxGeometry width="50" height="50" relative="1" as="geometry">
            <mxPoint x="710" y="550" as="sourcePoint" />
            <mxPoint x="760" y="500" as="targetPoint" />
            <Array as="points">
              <mxPoint x="670" y="430" />
            </Array>
          </mxGeometry>
        </mxCell>
        <mxCell id="1n5_cvBbj378lxJQUIeA-56" value="" style="endArrow=none;html=1;strokeColor=#000000;fontSize=16;fontColor=#000000;entryX=0.5;entryY=1;entryDx=0;entryDy=0;exitX=0.5;exitY=0;exitDx=0;exitDy=0;" edge="1" parent="1" source="1n5_cvBbj378lxJQUIeA-1" target="1n5_cvBbj378lxJQUIeA-19">
          <mxGeometry width="50" height="50" relative="1" as="geometry">
            <mxPoint x="390" y="570" as="sourcePoint" />
            <mxPoint x="440" y="520" as="targetPoint" />
          </mxGeometry>
        </mxCell>
        <mxCell id="1n5_cvBbj378lxJQUIeA-58" value="知识对象授权" style="text;html=1;strokeColor=none;fillColor=none;align=center;verticalAlign=middle;whiteSpace=wrap;rounded=0;fontSize=16;fontColor=#000000;" vertex="1" parent="1">
          <mxGeometry x="990" y="90" width="190" height="20" as="geometry" />
        </mxCell>
        <mxCell id="1n5_cvBbj378lxJQUIeA-59" value="用户A" style="ellipse;whiteSpace=wrap;html=1;fillColor=#dae8fc;strokeColor=#6C8EBF;" vertex="1" parent="1">
          <mxGeometry x="865" y="552" width="120" height="65" as="geometry" />
        </mxCell>
        <mxCell id="1n5_cvBbj378lxJQUIeA-60" value="用户B" style="ellipse;whiteSpace=wrap;html=1;fillColor=#d5e8d4;strokeColor=#82b366;" vertex="1" parent="1">
          <mxGeometry x="1025" y="552" width="120" height="65" as="geometry" />
        </mxCell>
        <mxCell id="1n5_cvBbj378lxJQUIeA-65" value="角色1" style="shape=parallelogram;perimeter=parallelogramPerimeter;whiteSpace=wrap;html=1;fixedSize=1;fillColor=#f5f5f5;strokeColor=#666666;fontColor=#333333;" vertex="1" parent="1">
          <mxGeometry x="865" y="204" width="120" height="60" as="geometry" />
        </mxCell>
        <mxCell id="1n5_cvBbj378lxJQUIeA-66" value="角色2" style="shape=parallelogram;perimeter=parallelogramPerimeter;whiteSpace=wrap;html=1;fixedSize=1;fillColor=#f5f5f5;strokeColor=#666666;fontColor=#333333;" vertex="1" parent="1">
          <mxGeometry x="1025" y="204" width="120" height="60" as="geometry" />
        </mxCell>
        <mxCell id="1n5_cvBbj378lxJQUIeA-67" value="角色3" style="shape=parallelogram;perimeter=parallelogramPerimeter;whiteSpace=wrap;html=1;fixedSize=1;fillColor=#f5f5f5;strokeColor=#666666;fontColor=#333333;" vertex="1" parent="1">
          <mxGeometry x="1185" y="204" width="120" height="60" as="geometry" />
        </mxCell>
        <mxCell id="1n5_cvBbj378lxJQUIeA-70" value="&lt;span style=&quot;font-size: 12px&quot;&gt;Macro1—A私有&lt;/span&gt;" style="rounded=0;whiteSpace=wrap;html=1;fontSize=12;strokeColor=#FF8000;align=left;" vertex="1" parent="1">
          <mxGeometry x="865" y="379" width="50.75" height="50" as="geometry" />
        </mxCell>
        <mxCell id="1n5_cvBbj378lxJQUIeA-72" value="用户C" style="ellipse;whiteSpace=wrap;html=1;fillColor=#ffe6cc;strokeColor=#d79b00;" vertex="1" parent="1">
          <mxGeometry x="610" y="200" width="120" height="70" as="geometry" />
        </mxCell>
        <mxCell id="1n5_cvBbj378lxJQUIeA-75" value="用户C" style="ellipse;whiteSpace=wrap;html=1;fillColor=#ffe6cc;strokeColor=#d79b00;" vertex="1" parent="1">
          <mxGeometry x="1185" y="549.5" width="120" height="70" as="geometry" />
        </mxCell>
        <mxCell id="1n5_cvBbj378lxJQUIeA-80" value="&lt;span style=&quot;font-size: 12px&quot;&gt;Lookup1—B&lt;/span&gt;私有" style="rounded=0;whiteSpace=wrap;html=1;fontSize=12;fontColor=#000000;strokeColor=#0000FF;align=left;" vertex="1" parent="1">
          <mxGeometry x="999.25" y="379" width="50.75" height="50" as="geometry" />
        </mxCell>
        <mxCell id="1n5_cvBbj378lxJQUIeA-83" value="&lt;span style=&quot;font-size: 12px&quot;&gt;Macro1&lt;br&gt;&lt;/span&gt;—A私有&lt;span style=&quot;font-size: 12px&quot;&gt;&lt;br&gt;&lt;/span&gt;" style="rounded=0;whiteSpace=wrap;html=1;fontSize=12;fontColor=#000000;strokeColor=#FF8000;align=left;" vertex="1" parent="1">
          <mxGeometry x="1120" y="378" width="50.75" height="50" as="geometry" />
        </mxCell>
        <mxCell id="1n5_cvBbj378lxJQUIeA-84" value="Lookup1&lt;br&gt;—C私有" style="rounded=0;whiteSpace=wrap;html=1;fontSize=12;fontColor=#000000;strokeColor=#0000FF;align=left;" vertex="1" parent="1">
          <mxGeometry x="1254.25" y="378" width="50.75" height="50" as="geometry" />
        </mxCell>
        <mxCell id="1n5_cvBbj378lxJQUIeA-86" value="&lt;span style=&quot;font-size: 12px&quot;&gt;Macro1—&lt;/span&gt;APP" style="rounded=0;whiteSpace=wrap;html=1;fontSize=12;strokeColor=#FF8000;align=left;" vertex="1" parent="1">
          <mxGeometry x="865" y="306" width="50.75" height="50" as="geometry" />
        </mxCell>
        <mxCell id="1n5_cvBbj378lxJQUIeA-87" value="&lt;span style=&quot;font-size: 12px&quot;&gt;Macro1—&lt;/span&gt;B私有" style="rounded=0;whiteSpace=wrap;html=1;fontSize=12;strokeColor=#FF8000;align=left;" vertex="1" parent="1">
          <mxGeometry x="933.25" y="379" width="50.75" height="50" as="geometry" />
        </mxCell>
        <mxCell id="1n5_cvBbj378lxJQUIeA-88" value="Lookup1—全局" style="rounded=0;whiteSpace=wrap;html=1;fontSize=12;fontColor=#000000;strokeColor=#0000FF;align=left;" vertex="1" parent="1">
          <mxGeometry x="934.25" y="306" width="50.75" height="50" as="geometry" />
        </mxCell>
        <mxCell id="1n5_cvBbj378lxJQUIeA-92" value="&lt;span style=&quot;font-size: 12px&quot;&gt;Macro1&lt;br&gt;&lt;/span&gt;—全局" style="rounded=0;whiteSpace=wrap;html=1;fontSize=12;fontColor=#000000;strokeColor=#FF8000;align=left;" vertex="1" parent="1">
          <mxGeometry x="1120" y="306" width="50.75" height="50" as="geometry" />
        </mxCell>
        <mxCell id="1n5_cvBbj378lxJQUIeA-95" value="" style="endArrow=classic;html=1;strokeColor=#FF8000;fontSize=12;fontColor=#000000;entryX=0.5;entryY=1;entryDx=0;entryDy=0;exitX=0.5;exitY=0;exitDx=0;exitDy=0;" edge="1" parent="1" source="1n5_cvBbj378lxJQUIeA-75" target="1n5_cvBbj378lxJQUIeA-107">
          <mxGeometry width="50" height="50" relative="1" as="geometry">
            <mxPoint x="1241" y="532.5" as="sourcePoint" />
            <mxPoint x="1291" y="482.5" as="targetPoint" />
          </mxGeometry>
        </mxCell>
        <mxCell id="1n5_cvBbj378lxJQUIeA-97" value="" style="endArrow=classic;html=1;fontSize=12;fontColor=#000000;exitX=0.5;exitY=0;exitDx=0;exitDy=0;entryX=0.5;entryY=1;entryDx=0;entryDy=0;strokeColor=#82b366;" edge="1" parent="1" source="1n5_cvBbj378lxJQUIeA-60" target="1n5_cvBbj378lxJQUIeA-105">
          <mxGeometry width="50" height="50" relative="1" as="geometry">
            <mxPoint x="1010" y="576" as="sourcePoint" />
            <mxPoint x="1060" y="526" as="targetPoint" />
          </mxGeometry>
        </mxCell>
        <mxCell id="1n5_cvBbj378lxJQUIeA-101" value="" style="endArrow=classic;html=1;fontSize=12;fontColor=#000000;entryX=0.5;entryY=1;entryDx=0;entryDy=0;exitX=0.5;exitY=0;exitDx=0;exitDy=0;strokeColor=#6C8EBF;" edge="1" parent="1" source="1n5_cvBbj378lxJQUIeA-59" target="1n5_cvBbj378lxJQUIeA-107">
          <mxGeometry width="50" height="50" relative="1" as="geometry">
            <mxPoint x="960" y="596" as="sourcePoint" />
            <mxPoint x="1010" y="546" as="targetPoint" />
          </mxGeometry>
        </mxCell>
        <mxCell id="1n5_cvBbj378lxJQUIeA-102" value="" style="endArrow=classic;html=1;fontSize=12;fontColor=#000000;entryX=0.5;entryY=1;entryDx=0;entryDy=0;exitX=0.5;exitY=0;exitDx=0;exitDy=0;strokeColor=#6C8EBF;" edge="1" parent="1" source="1n5_cvBbj378lxJQUIeA-59" target="1n5_cvBbj378lxJQUIeA-105">
          <mxGeometry width="50" height="50" relative="1" as="geometry">
            <mxPoint x="950" y="556" as="sourcePoint" />
            <mxPoint x="1000" y="506" as="targetPoint" />
          </mxGeometry>
        </mxCell>
        <mxCell id="1n5_cvBbj378lxJQUIeA-109" value="&lt;span style=&quot;font-size: 12px&quot;&gt;Macro1&lt;br&gt;&lt;/span&gt;—C私有&lt;span style=&quot;font-size: 12px&quot;&gt;&lt;br&gt;&lt;/span&gt;" style="rounded=0;whiteSpace=wrap;html=1;fontSize=12;fontColor=#000000;strokeColor=#FF8000;align=left;" vertex="1" parent="1">
          <mxGeometry x="1187.13" y="379" width="50.75" height="50" as="geometry" />
        </mxCell>
        <mxCell id="1n5_cvBbj378lxJQUIeA-110" value="" style="endArrow=classic;html=1;fontSize=12;fontColor=#000000;entryX=0.5;entryY=1;entryDx=0;entryDy=0;exitX=0.5;exitY=0;exitDx=0;exitDy=0;strokeColor=#FF8000;" edge="1" parent="1" source="1n5_cvBbj378lxJQUIeA-86" target="1n5_cvBbj378lxJQUIeA-65">
          <mxGeometry width="50" height="50" relative="1" as="geometry">
            <mxPoint x="900" y="316" as="sourcePoint" />
            <mxPoint x="950" y="266" as="targetPoint" />
          </mxGeometry>
        </mxCell>
        <mxCell id="1n5_cvBbj378lxJQUIeA-111" value="" style="endArrow=classic;html=1;fontSize=12;fontColor=#000000;entryX=0.5;entryY=1;entryDx=0;entryDy=0;exitX=0.5;exitY=0;exitDx=0;exitDy=0;strokeColor=#0000FF;" edge="1" parent="1" source="1n5_cvBbj378lxJQUIeA-88" target="1n5_cvBbj378lxJQUIeA-65">
          <mxGeometry width="50" height="50" relative="1" as="geometry">
            <mxPoint x="980" y="316" as="sourcePoint" />
            <mxPoint x="1030" y="266" as="targetPoint" />
          </mxGeometry>
        </mxCell>
        <mxCell id="1n5_cvBbj378lxJQUIeA-112" value="" style="endArrow=classic;html=1;fontSize=12;fontColor=#000000;exitX=0.5;exitY=0;exitDx=0;exitDy=0;entryX=0.5;entryY=1;entryDx=0;entryDy=0;strokeColor=#FF8000;" edge="1" parent="1" source="1n5_cvBbj378lxJQUIeA-92" target="1n5_cvBbj378lxJQUIeA-67">
          <mxGeometry width="50" height="50" relative="1" as="geometry">
            <mxPoint x="1130" y="306" as="sourcePoint" />
            <mxPoint x="1180" y="256" as="targetPoint" />
          </mxGeometry>
        </mxCell>
        <mxCell id="1n5_cvBbj378lxJQUIeA-114" value="" style="endArrow=classic;html=1;fontSize=12;fontColor=#000000;entryX=0.5;entryY=1;entryDx=0;entryDy=0;exitX=0.5;exitY=0;exitDx=0;exitDy=0;strokeColor=#FF8000;" edge="1" parent="1" source="1n5_cvBbj378lxJQUIeA-92" target="1n5_cvBbj378lxJQUIeA-66">
          <mxGeometry width="50" height="50" relative="1" as="geometry">
            <mxPoint x="1060" y="316" as="sourcePoint" />
            <mxPoint x="1110" y="266" as="targetPoint" />
          </mxGeometry>
        </mxCell>
      </root>
    </mxGraphModel>
  </diagram>
</mxfile>
